name rise30.2954peak35.7071fall66.7804.mot
datacolumns 19
datarows 36
range 10.93829700000000 10.99663200000000
endheader
time	ground_force1_vx	ground_force1_vy	ground_force1_vz	ground_force1_px	ground_force1_py	ground_force1_pz	ground_force2_vx	ground_force2_vy	ground_force2_vz	ground_force2_px	ground_force2_py	ground_force2_pz	ground_torque1_x	ground_torque1_y	ground_torque1_z	ground_torque2_x	ground_torque2_y	ground_torque2_z	
10.93829700000000	8.04220300000000	714.98706900000002	44.29015000000000	0.24222000000000	0.00000000000000	0.15543500000000	0.00000000000000	0.00000000000000	0.00000000000000	0.00000000000000	0.00000000000000	0.00000000000000	0.00000000000000	19.02475900000000	0.00000000000000	0.00000000000000	0.00000000000000	0.00000000000000	
10.93996200000000	7.58798200000000	715.64055699999994	44.29273200000000	0.24153400000000	0.00000000000000	0.15541800000000	0.00000000000000	0.00000000000000	0.00000000000000	0.00000000000000	0.00000000000000	0.00000000000000	0.00000000000000	19.12081700000000	0.00000000000000	0.00000000000000	0.00000000000000	0.00000000000000	
10.94162500000000	7.12147200000000	716.31963399999995	44.29722700000000	0.24085000000000	0.00000000000000	0.15540000000000	0.00000000000000	0.00000000000000	0.00000000000000	0.00000000000000	0.00000000000000	0.00000000000000	0.00000000000000	19.22254600000000	0.00000000000000	0.00000000000000	0.00000000000000	0.00000000000000	
10.94329400000000	6.64252300000000	717.02511400000003	44.30361500000000	0.24016600000000	0.00000000000000	0.15538200000000	0.00000000000000	0.00000000000000	0.00000000000000	0.00000000000000	0.00000000000000	0.00000000000000	0.00000000000000	19.32985600000000	0.00000000000000	0.00000000000000	0.00000000000000	0.00000000000000	
10.94496500000000	6.15102400000000	717.75783400000000	44.31188700000000	0.23948000000000	0.00000000000000	0.15536200000000	0.00000000000000	0.00000000000000	0.00000000000000	0.00000000000000	0.00000000000000	0.00000000000000	0.00000000000000	19.44264900000000	0.00000000000000	0.00000000000000	0.00000000000000	0.00000000000000	
10.94662900000000	5.64690900000000	718.51864899999998	44.32204000000000	0.23879100000000	0.00000000000000	0.15534300000000	0.00000000000000	0.00000000000000	0.00000000000000	0.00000000000000	0.00000000000000	0.00000000000000	0.00000000000000	19.56081300000000	0.00000000000000	0.00000000000000	0.00000000000000	0.00000000000000	
10.94829100000000	5.13015500000000	719.30841699999996	44.33407900000000	0.23809600000000	0.00000000000000	0.15532200000000	0.00000000000000	0.00000000000000	0.00000000000000	0.00000000000000	0.00000000000000	0.00000000000000	0.00000000000000	19.68422900000000	0.00000000000000	0.00000000000000	0.00000000000000	0.00000000000000	
10.94996200000000	4.60078200000000	720.12799800000005	44.34801400000000	0.23739500000000	0.00000000000000	0.15530100000000	0.00000000000000	0.00000000000000	0.00000000000000	0.00000000000000	0.00000000000000	0.00000000000000	0.00000000000000	19.81276600000000	0.00000000000000	0.00000000000000	0.00000000000000	0.00000000000000	
10.95163000000000	4.05885400000000	720.97823800000003	44.36386300000000	0.23668600000000	0.00000000000000	0.15528000000000	0.00000000000000	0.00000000000000	0.00000000000000	0.00000000000000	0.00000000000000	0.00000000000000	0.00000000000000	19.94628200000000	0.00000000000000	0.00000000000000	0.00000000000000	0.00000000000000	
10.95330000000000	3.50448100000000	721.85996699999998	44.38164900000000	0.23596700000000	0.00000000000000	0.15525800000000	0.00000000000000	0.00000000000000	0.00000000000000	0.00000000000000	0.00000000000000	0.00000000000000	0.00000000000000	20.08462800000000	0.00000000000000	0.00000000000000	0.00000000000000	0.00000000000000	
10.95496500000000	2.93781500000000	722.77398700000003	44.40140200000000	0.23523800000000	0.00000000000000	0.15523700000000	0.00000000000000	0.00000000000000	0.00000000000000	0.00000000000000	0.00000000000000	0.00000000000000	0.00000000000000	20.22764300000000	0.00000000000000	0.00000000000000	0.00000000000000	0.00000000000000	
10.95663300000000	2.35905500000000	723.72106199999996	44.42315600000000	0.23449700000000	0.00000000000000	0.15521400000000	0.00000000000000	0.00000000000000	0.00000000000000	0.00000000000000	0.00000000000000	0.00000000000000	0.00000000000000	20.37515800000000	0.00000000000000	0.00000000000000	0.00000000000000	0.00000000000000	
10.95829200000000	1.76844100000000	724.70191499999999	44.44694900000000	0.23374200000000	0.00000000000000	0.15519200000000	0.00000000000000	0.00000000000000	0.00000000000000	0.00000000000000	0.00000000000000	0.00000000000000	0.00000000000000	20.52699700000000	0.00000000000000	0.00000000000000	0.00000000000000	0.00000000000000	
10.95996100000000	1.16625900000000	725.71721400000001	44.47282400000000	0.23297400000000	0.00000000000000	0.15517000000000	0.00000000000000	0.00000000000000	0.00000000000000	0.00000000000000	0.00000000000000	0.00000000000000	0.00000000000000	20.68297300000000	0.00000000000000	0.00000000000000	0.00000000000000	0.00000000000000	
10.96163000000000	0.55283600000000	726.76756699999999	44.50082700000000	0.23219000000000	0.00000000000000	0.15514700000000	0.00000000000000	0.00000000000000	0.00000000000000	0.00000000000000	0.00000000000000	0.00000000000000	0.00000000000000	20.84289300000000	0.00000000000000	0.00000000000000	0.00000000000000	0.00000000000000	
10.96329900000000	-0.07145900000000	727.85351400000002	44.53100900000000	0.23139000000000	0.00000000000000	0.15512500000000	0.00000000000000	0.00000000000000	0.00000000000000	0.00000000000000	0.00000000000000	0.00000000000000	0.00000000000000	21.00655500000000	0.00000000000000	0.00000000000000	0.00000000000000	0.00000000000000	
10.96496100000000	-0.70621600000000	728.97551799999997	44.56342200000000	0.23057400000000	0.00000000000000	0.15510300000000	0.00000000000000	0.00000000000000	0.00000000000000	0.00000000000000	0.00000000000000	0.00000000000000	0.00000000000000	21.17375300000000	0.00000000000000	0.00000000000000	0.00000000000000	0.00000000000000	
10.96663100000000	-1.35098500000000	730.13396000000000	44.59812100000000	0.22974100000000	0.00000000000000	0.15508000000000	0.00000000000000	0.00000000000000	0.00000000000000	0.00000000000000	0.00000000000000	0.00000000000000	0.00000000000000	21.34427300000000	0.00000000000000	0.00000000000000	0.00000000000000	0.00000000000000	
10.96830100000000	-2.00528000000000	731.32913299999996	44.63516400000000	0.22889000000000	0.00000000000000	0.15505800000000	0.00000000000000	0.00000000000000	0.00000000000000	0.00000000000000	0.00000000000000	0.00000000000000	0.00000000000000	21.51789500000000	0.00000000000000	0.00000000000000	0.00000000000000	0.00000000000000	
10.96996200000000	-2.66857500000000	732.56123100000002	44.67460800000000	0.22802100000000	0.00000000000000	0.15503600000000	0.00000000000000	0.00000000000000	0.00000000000000	0.00000000000000	0.00000000000000	0.00000000000000	0.00000000000000	21.69439500000000	0.00000000000000	0.00000000000000	0.00000000000000	0.00000000000000	
10.97163100000000	-3.34031200000000	733.83034899999996	44.71651400000000	0.22713400000000	0.00000000000000	0.15501400000000	0.00000000000000	0.00000000000000	0.00000000000000	0.00000000000000	0.00000000000000	0.00000000000000	0.00000000000000	21.87354200000000	0.00000000000000	0.00000000000000	0.00000000000000	0.00000000000000	
10.97330000000000	-4.01989700000000	735.13647400000002	44.76094200000000	0.22622900000000	0.00000000000000	0.15499200000000	0.00000000000000	0.00000000000000	0.00000000000000	0.00000000000000	0.00000000000000	0.00000000000000	0.00000000000000	22.05510400000000	0.00000000000000	0.00000000000000	0.00000000000000	0.00000000000000	
10.97496100000000	-4.70670700000000	736.47948299999996	44.80795400000000	0.22530600000000	0.00000000000000	0.15497100000000	0.00000000000000	0.00000000000000	0.00000000000000	0.00000000000000	0.00000000000000	0.00000000000000	0.00000000000000	22.23884300000000	0.00000000000000	0.00000000000000	0.00000000000000	0.00000000000000	
10.97663900000000	-5.40008900000000	737.85913500000004	44.85761000000000	0.22436500000000	0.00000000000000	0.15495000000000	0.00000000000000	0.00000000000000	0.00000000000000	0.00000000000000	0.00000000000000	0.00000000000000	0.00000000000000	22.42451900000000	0.00000000000000	0.00000000000000	0.00000000000000	0.00000000000000	
10.97829900000000	-6.09936400000000	739.27507300000002	44.90997000000000	0.22340700000000	0.00000000000000	0.15492900000000	0.00000000000000	0.00000000000000	0.00000000000000	0.00000000000000	0.00000000000000	0.00000000000000	0.00000000000000	22.61189100000000	0.00000000000000	0.00000000000000	0.00000000000000	0.00000000000000	
10.97996100000000	-6.80382800000000	740.72681399999999	44.96509400000000	0.22243200000000	0.00000000000000	0.15490800000000	0.00000000000000	0.00000000000000	0.00000000000000	0.00000000000000	0.00000000000000	0.00000000000000	0.00000000000000	22.80071300000000	0.00000000000000	0.00000000000000	0.00000000000000	0.00000000000000	
10.98162800000000	-7.51275300000000	742.21375499999999	45.02304100000000	0.22144000000000	0.00000000000000	0.15488700000000	0.00000000000000	0.00000000000000	0.00000000000000	0.00000000000000	0.00000000000000	0.00000000000000	0.00000000000000	22.99074100000000	0.00000000000000	0.00000000000000	0.00000000000000	0.00000000000000	
10.98329500000000	-8.22539600000000	743.73516400000005	45.08386700000000	0.22043300000000	0.00000000000000	0.15486700000000	0.00000000000000	0.00000000000000	0.00000000000000	0.00000000000000	0.00000000000000	0.00000000000000	0.00000000000000	23.18172700000000	0.00000000000000	0.00000000000000	0.00000000000000	0.00000000000000	
10.98496100000000	-8.94099200000000	745.29018299999996	45.14762600000000	0.21941100000000	0.00000000000000	0.15484600000000	0.00000000000000	0.00000000000000	0.00000000000000	0.00000000000000	0.00000000000000	0.00000000000000	0.00000000000000	23.37342700000000	0.00000000000000	0.00000000000000	0.00000000000000	0.00000000000000	
10.98663100000000	-9.65876600000000	746.87782700000002	45.21437100000000	0.21837500000000	0.00000000000000	0.15482600000000	0.00000000000000	0.00000000000000	0.00000000000000	0.00000000000000	0.00000000000000	0.00000000000000	0.00000000000000	23.56559300000000	0.00000000000000	0.00000000000000	0.00000000000000	0.00000000000000	
10.98829700000000	-10.37792900000000	748.49698400000000	45.28415000000000	0.21732600000000	0.00000000000000	0.15480600000000	0.00000000000000	0.00000000000000	0.00000000000000	0.00000000000000	0.00000000000000	0.00000000000000	0.00000000000000	23.75798100000000	0.00000000000000	0.00000000000000	0.00000000000000	0.00000000000000	
10.98996000000000	-11.09768500000000	750.14641600000004	45.35701000000000	0.21626500000000	0.00000000000000	0.15478600000000	0.00000000000000	0.00000000000000	0.00000000000000	0.00000000000000	0.00000000000000	0.00000000000000	0.00000000000000	23.95034800000000	0.00000000000000	0.00000000000000	0.00000000000000	0.00000000000000	
10.99162800000000	-11.81723200000000	751.82476099999997	45.43299200000000	0.21519300000000	0.00000000000000	0.15476600000000	0.00000000000000	0.00000000000000	0.00000000000000	0.00000000000000	0.00000000000000	0.00000000000000	0.00000000000000	24.14245200000000	0.00000000000000	0.00000000000000	0.00000000000000	0.00000000000000	
10.99329500000000	-12.53576500000000	753.53053599999998	45.51213400000000	0.21411200000000	0.00000000000000	0.15474600000000	0.00000000000000	0.00000000000000	0.00000000000000	0.00000000000000	0.00000000000000	0.00000000000000	0.00000000000000	24.33405300000000	0.00000000000000	0.00000000000000	0.00000000000000	0.00000000000000	
10.99496500000000	-13.25248000000000	755.26213700000005	45.59446900000000	0.21302300000000	0.00000000000000	0.15472600000000	0.00000000000000	0.00000000000000	0.00000000000000	0.00000000000000	0.00000000000000	0.00000000000000	0.00000000000000	24.52491600000000	0.00000000000000	0.00000000000000	0.00000000000000	0.00000000000000	
10.99663200000000	-13.96657300000000	757.01784499999997	45.68002600000000	0.21192700000000	0.00000000000000	0.15470700000000	0.00000000000000	0.00000000000000	0.00000000000000	0.00000000000000	0.00000000000000	0.00000000000000	0.00000000000000	24.71480800000000	0.00000000000000	0.00000000000000	0.00000000000000	0.00000000000000	
